<svg xmlns="http://www.w3.org/2000/svg" width="960" height="540" viewBox="0 0 960 540">
  <defs>
    <linearGradient id="g" x1="0" y1="0" x2="1" y2="1">
      <stop offset="0" stop-color="#7a0b0b"/>
      <stop offset="1" stop-color="#dc3545"/>
    </linearGradient>
  </defs>
  <rect width="960" height="540" fill="url(#g)"/>
  <circle cx="140" cy="140" r="70" fill="rgba(255,255,255,0.12)"/>
  <circle cx="830" cy="90" r="50" fill="rgba(255,255,255,0.10)"/>
  <circle cx="820" cy="460" r="90" fill="rgba(255,255,255,0.08)"/>
  <g fill="#fff">
    <path d="M480 110c-12 0-23 6-30 16L180 510h600L510 126c-7-10-18-16-30-16zm0 110c18 0 32 14 32 32v120c0 18-14 32-32 32s-32-14-32-32V252c0-18 14-32 32-32zm0 250c22 0 40 18 40 40s-18 40-40 40-40-18-40-40 18-40 40-40z" opacity="0.9"/>
  </g>
  <text x="60" y="90" fill="#fff" font-size="42" font-family="system-ui, -apple-system, Segoe UI, Roboto, Arial" font-weight="700">
    红灯警示
  </text>
  <text x="60" y="140" fill="#fff" font-size="24" font-family="system-ui, -apple-system, Segoe UI, Roboto, Arial" opacity="0.9">
    昨日触发高风险规则：今天必须把风险项清零
  </text>
  <text x="60" y="500" fill="#fff" font-size="18" font-family="system-ui, -apple-system, Segoe UI, Roboto, Arial" opacity="0.75">
    你可以把此图替换为你自己的“警示图”素材：app/static/warnings/
  </text>
</svg>

